{
 "cells": [
  {
   "cell_type": "markdown",
   "metadata": {
    "colab_type": "text",
    "id": "1pIo4r_Y8cMo"
   },
   "source": [
    "# DAIN"
   ]
  },
  {
   "cell_type": "markdown",
   "metadata": {
    "colab_type": "text",
    "id": "iGPHW5SOpPe3"
   },
   "source": [
    "Based on the [original Colab file](https://github.com/baowenbo/DAIN/issues/44) by btahir. \n",
    "and [Alpha](https://github.com/AlphaGit)"
   ]
  },
  {
   "cell_type": "code",
   "execution_count": null,
   "metadata": {
    "colab": {},
    "colab_type": "code",
    "id": "-mRVRXIGPk9I"
   },
   "outputs": [],
   "source": [
    "# Clone DAIN sources\n",
    "!git clone -b colab-compatibility --depth 1 https://github.com/AlphaGit/DAIN"
   ]
  },
  {
   "cell_type": "code",
   "execution_count": 1,
   "metadata": {},
   "outputs": [],
   "source": [
    "! rm -R DAIN/frames"
   ]
  },
  {
   "cell_type": "code",
   "execution_count": 2,
   "metadata": {},
   "outputs": [],
   "source": [
    "! mkdir DAIN/frames\n",
    "! mkdir DAIN/frames/input_frames && mkdir DAIN/frames/output_frames"
   ]
  },
  {
   "cell_type": "code",
   "execution_count": 12,
   "metadata": {
    "colab": {},
    "colab_type": "code",
    "id": "enKoi0TR2fOD"
   },
   "outputs": [],
   "source": [
    "################# Required Configurations ############################\n",
    "\n",
    "INPUT_FILEPATH = \"video/original.mp4\" #param{type:\"string\"}\n",
    "\n",
    "OUTPUT_FILEPATH = \"video/output.mp4\" #param{type:\"string\"}\n",
    "\n",
    "################# Optional configurations ############################\n",
    "\n",
    "TARGET_FPS = 80 #param{type:\"number\"}\n",
    "\n",
    "INPUTFRAMES_DIRPATH = 'frames/input_frames' #@param{type:\"string\"}\n",
    "\n",
    "OUTPUTFRAMES_DIRPATH = 'frames/output_frames' #@param{type:\"string\"}\n",
    "\n",
    "#DAIN frames are a bit \"shifted / smaller\" compared to original input frames. This can partly be mitigated with resizing DAIN frames to the resolution +2px and cropping the result to the original resoultion with the starting point (1,1). Without this fix, DAIN tends to make \"vibrating\" output and it is pretty noticible with static elements like text.\n",
    "RESIZE_HOTFIX = True #@param{type:\"boolean\"}"
   ]
  },
  {
   "cell_type": "code",
   "execution_count": 4,
   "metadata": {
    "colab": {},
    "colab_type": "code",
    "id": "irzjv1x4e3S4"
   },
   "outputs": [
    {
     "name": "stdout",
     "output_type": "stream",
     "text": [
      "name, driver_version, memory.total [MiB]\n",
      "Quadro P5000, 450.36.06, 16278 MiB\n"
     ]
    }
   ],
   "source": [
    "# Check your current GPU\n",
    "\n",
    "# 16GB: Can handle 720p. 1080p will procude an out-of-memory error. \n",
    "# 8GB: Can handle 480p. 720p will produce an out-of-memory error.\n",
    "\n",
    "!nvidia-smi --query-gpu=gpu_name,driver_version,memory.total --format=csv"
   ]
  },
  {
   "cell_type": "markdown",
   "metadata": {
    "colab_type": "text",
    "id": "UYHTTP91oMvh"
   },
   "source": [
    "# Install dependencies.\n",
    "\n",
    "This next step may take somewhere between 15-20 minutes."
   ]
  },
  {
   "cell_type": "code",
   "execution_count": null,
   "metadata": {},
   "outputs": [],
   "source": [
    "!apt-get update"
   ]
  },
  {
   "cell_type": "code",
   "execution_count": null,
   "metadata": {},
   "outputs": [],
   "source": [
    "!apt-get install imagemagick imagemagick-doc libgl1-mesa-glx ffmpeg"
   ]
  },
  {
   "cell_type": "code",
   "execution_count": null,
   "metadata": {},
   "outputs": [],
   "source": [
    "!pip install --upgrade pip"
   ]
  },
  {
   "cell_type": "code",
   "execution_count": null,
   "metadata": {
    "colab": {},
    "colab_type": "code",
    "id": "XunYRBtyPZf_"
   },
   "outputs": [],
   "source": [
    "# Install known used versions of PyTorch and SciPy\n",
    "!pip install torch==1.4.0+cu100 torchvision==0.5.0+cu100 -f https://download.pytorch.org/whl/torch_stable.html\n",
    "!pip install scipy==1.1.0"
   ]
  },
  {
   "cell_type": "code",
   "execution_count": null,
   "metadata": {},
   "outputs": [],
   "source": [
    "!pip install opencv-python\n",
    "!pip install imageio"
   ]
  },
  {
   "cell_type": "code",
   "execution_count": null,
   "metadata": {
    "colab": {},
    "colab_type": "code",
    "id": "e5AHGetTRacZ"
   },
   "outputs": [],
   "source": [
    "# This takes a while. Just wait. ~15 minutes.\n",
    "# Building DAIN.\n",
    "%cd DAIN/my_package/\n",
    "!./build.sh\n",
    "print(\"Building #1 done.\")\n",
    "%cd ../../"
   ]
  },
  {
   "cell_type": "code",
   "execution_count": null,
   "metadata": {
    "colab": {},
    "colab_type": "code",
    "id": "UeaU8um5-2NS"
   },
   "outputs": [],
   "source": [
    "# Wait again. ~5 minutes.\n",
    "# Building DAIN PyTorch correlation package.\n",
    "%cd DAIN/PWCNet/correlation_package_pytorch1_0\n",
    "!./build.sh\n",
    "print(\"Building #2 done.\")\n",
    "%cd ../../.."
   ]
  },
  {
   "cell_type": "code",
   "execution_count": null,
   "metadata": {
    "colab": {},
    "colab_type": "code",
    "id": "InjqMYIyXCZs"
   },
   "outputs": [],
   "source": [
    "# Downloading pre-trained model\n",
    "!mkdir DAIN/model_weights\n",
    "!wget -O DAIN/model_weights/best.pth http://vllab1.ucmerced.edu/~wenbobao/DAIN/best.pth"
   ]
  },
  {
   "cell_type": "code",
   "execution_count": 5,
   "metadata": {
    "colab": {},
    "colab_type": "code",
    "id": "FrdWsqbvXEid"
   },
   "outputs": [
    {
     "name": "stdout",
     "output_type": "stream",
     "text": [
      "Finished installing dependencies.\n"
     ]
    }
   ],
   "source": [
    "!CUDA_VISIBLE_DEVICES=0\n",
    "print(\"Finished installing dependencies.\")"
   ]
  },
  {
   "cell_type": "markdown",
   "metadata": {},
   "source": [
    "# Start"
   ]
  },
  {
   "cell_type": "code",
   "execution_count": 5,
   "metadata": {},
   "outputs": [],
   "source": [
    "import os\n",
    "import cv2\n",
    "import subprocess as sp\n",
    "from tqdm import tqdm"
   ]
  },
  {
   "cell_type": "code",
   "execution_count": 6,
   "metadata": {
    "colab": {},
    "colab_type": "code",
    "id": "zm5kn6vTncL4"
   },
   "outputs": [],
   "source": [
    "# Detecting FPS of input file.\n",
    "\n",
    "filename = os.path.basename(INPUT_FILEPATH)\n",
    "\n",
    "cap = cv2.VideoCapture(f'video/{filename}')\n",
    "\n",
    "fps = cap.get(cv2.CAP_PROP_FPS)\n",
    "\n",
    "if(fps/TARGET_FPS>0.5):\n",
    "  print(\"Define a higher fps, because there is not enough time for new frames. (Old FPS)/(New FPS) should be lower than 0.5. Interpolation will fail if you try.\")"
   ]
  },
  {
   "cell_type": "code",
   "execution_count": 7,
   "metadata": {},
   "outputs": [
    {
     "name": "stdout",
     "output_type": "stream",
     "text": [
      "ffmpeg version 3.4.8-0ubuntu0.2 Copyright (c) 2000-2020 the FFmpeg developers\n",
      "  built with gcc 7 (Ubuntu 7.5.0-3ubuntu1~18.04)\n",
      "  configuration: --prefix=/usr --extra-version=0ubuntu0.2 --toolchain=hardened --libdir=/usr/lib/x86_64-linux-gnu --incdir=/usr/include/x86_64-linux-gnu --enable-gpl --disable-stripping --enable-avresample --enable-avisynth --enable-gnutls --enable-ladspa --enable-libass --enable-libbluray --enable-libbs2b --enable-libcaca --enable-libcdio --enable-libflite --enable-libfontconfig --enable-libfreetype --enable-libfribidi --enable-libgme --enable-libgsm --enable-libmp3lame --enable-libmysofa --enable-libopenjpeg --enable-libopenmpt --enable-libopus --enable-libpulse --enable-librubberband --enable-librsvg --enable-libshine --enable-libsnappy --enable-libsoxr --enable-libspeex --enable-libssh --enable-libtheora --enable-libtwolame --enable-libvorbis --enable-libvpx --enable-libwavpack --enable-libwebp --enable-libx265 --enable-libxml2 --enable-libxvid --enable-libzmq --enable-libzvbi --enable-omx --enable-openal --enable-opengl --enable-sdl2 --enable-libdc1394 --enable-libdrm --enable-libiec61883 --enable-chromaprint --enable-frei0r --enable-libopencv --enable-libx264 --enable-shared\n",
      "  libavutil      55. 78.100 / 55. 78.100\n",
      "  libavcodec     57.107.100 / 57.107.100\n",
      "  libavformat    57. 83.100 / 57. 83.100\n",
      "  libavdevice    57. 10.100 / 57. 10.100\n",
      "  libavfilter     6.107.100 /  6.107.100\n",
      "  libavresample   3.  7.  0 /  3.  7.  0\n",
      "  libswscale      4.  8.100 /  4.  8.100\n",
      "  libswresample   2.  9.100 /  2.  9.100\n",
      "  libpostproc    54.  7.100 / 54.  7.100\n",
      "Input #0, mov,mp4,m4a,3gp,3g2,mj2, from 'video/original.mp4':\n",
      "  Metadata:\n",
      "    major_brand     : isom\n",
      "    minor_version   : 512\n",
      "    compatible_brands: isomiso2avc1mp41\n",
      "    title           : 1896 Georges Méliès Le Cauchemar (A Nightmare) Star Film 82 - http://archive.org/details/LeCauchemar\n",
      "    encoder         : Lavf54.3.100\n",
      "    comment         : license:http://creativecommons.org/publicdomain/mark/1.0/\n",
      "  Duration: 00:01:08.36, start: 0.000000, bitrate: 817 kb/s\n",
      "    Stream #0:0(und): Video: h264 (Constrained Baseline) (avc1 / 0x31637661), yuv420p, 640x480 [SAR 31:30 DAR 62:45], 696 kb/s, 23.98 fps, 23.98 tbr, 1199 tbn, 47.96 tbc (default)\n",
      "    Metadata:\n",
      "      handler_name    : VideoHandler\n",
      "    Stream #0:1(und): Audio: aac (LC) (mp4a / 0x6134706D), 44100 Hz, stereo, fltp, 119 kb/s (default)\n",
      "    Metadata:\n",
      "      handler_name    : SoundHandler\n",
      "Stream mapping:\n",
      "  Stream #0:0 -> #0:0 (h264 (native) -> png (native))\n",
      "Press [q] to stop, [?] for help\n",
      "Output #0, image2, to 'DAIN/frames/input_frames/%05d.png':\n",
      "  Metadata:\n",
      "    major_brand     : isom\n",
      "    minor_version   : 512\n",
      "    compatible_brands: isomiso2avc1mp41\n",
      "    title           : 1896 Georges Méliès Le Cauchemar (A Nightmare) Star Film 82 - http://archive.org/details/LeCauchemar\n",
      "    comment         : license:http://creativecommons.org/publicdomain/mark/1.0/\n",
      "    encoder         : Lavf57.83.100\n",
      "    Stream #0:0(und): Video: png, rgb24, 640x480 [SAR 31:30 DAR 62:45], q=2-31, 200 kb/s, 23.98 fps, 23.98 tbn, 23.98 tbc (default)\n",
      "    Metadata:\n",
      "      handler_name    : VideoHandler\n",
      "      encoder         : Lavc57.107.100 png\n",
      "frame= 1625 fps=110 q=-0.0 Lsize=N/A time=00:01:07.76 bitrate=N/A speed=4.59x    \n",
      "video:352954kB audio:0kB subtitle:0kB other streams:0kB global headers:0kB muxing overhead: unknown\n"
     ]
    }
   ],
   "source": [
    "# ffmpeg extract - Generating individual frame PNGs from the source file.\n",
    "! ffmpeg -i 'video/{filename}' 'DAIN/{INPUTFRAMES_DIRPATH}/%05d.png'"
   ]
  },
  {
   "cell_type": "code",
   "execution_count": 8,
   "metadata": {},
   "outputs": [],
   "source": [
    "pngs_generated_count = int(sp.getoutput('ls '+'DAIN/'+INPUTFRAMES_DIRPATH+' | wc -l'))"
   ]
  },
  {
   "cell_type": "code",
   "execution_count": 9,
   "metadata": {},
   "outputs": [
    {
     "data": {
      "text/plain": [
       "1625"
      ]
     },
     "execution_count": 9,
     "metadata": {},
     "output_type": "execute_result"
    }
   ],
   "source": [
    "pngs_generated_count"
   ]
  },
  {
   "cell_type": "code",
   "execution_count": 10,
   "metadata": {
    "colab": {},
    "colab_type": "code",
    "id": "9YNva-GuKq4Y"
   },
   "outputs": [
    {
     "name": "stdout",
     "output_type": "stream",
     "text": [
      "/notebooks/DAIN\n",
      "Input FPS: 23.98\n",
      "1625 frame PNGs generated.\n",
      "/notebooks/DAIN/frames/input_frames\n",
      "srgb detected\n",
      "/notebooks/DAIN\n"
     ]
    }
   ],
   "source": [
    "%cd DAIN/\n",
    "\n",
    "import shutil\n",
    "\n",
    "print(f\"Input FPS: {fps}\")\n",
    "print(f\"{pngs_generated_count} frame PNGs generated.\")\n",
    "\n",
    "# Checking if PNG do have alpha\n",
    "%cd {INPUTFRAMES_DIRPATH}\n",
    "channels = sp.getoutput('identify -format %[channels] 00001.png')\n",
    "print (f\"{channels} detected\")\n",
    "\n",
    "# Removing alpha if detected\n",
    "if \"a\" in channels:\n",
    "  print(\"Alpha detected and will be removed.\")\n",
    "  print(sp.getoutput('find . -name \"*.png\" -exec convert \"{}\" -alpha off PNG24:\"{}\" \\;'))\n",
    "\n",
    "%cd ../../"
   ]
  },
  {
   "cell_type": "code",
   "execution_count": 11,
   "metadata": {},
   "outputs": [],
   "source": [
    "# Interpolation"
   ]
  },
  {
   "cell_type": "code",
   "execution_count": 13,
   "metadata": {
    "colab": {},
    "colab_type": "code",
    "id": "W3rrE7L824gL"
   },
   "outputs": [
    {
     "name": "stdout",
     "output_type": "stream",
     "text": [
      "revise the unique id to a random numer 58035\n",
      "Namespace(SAVED_MODEL=None, alpha=[0.0, 1.0], arg='./model_weights/58035-Sun-Sep-20-23-38/args.txt', batch_size=1, channels=3, ctx_lr_coe=1.0, datasetName='Vimeo_90K_interp', datasetPath='', dataset_split=97, debug=False, depth_lr_coe=0.001, dtype=<class 'torch.cuda.FloatTensor'>, end_frame=1625, epsilon=1e-06, factor=0.2, filter_lr_coe=1.0, filter_size=4, flow_lr_coe=0.01, force=False, frame_input_dir='frames/input_frames', frame_output_dir='frames/output_frames', log='./model_weights/58035-Sun-Sep-20-23-38/log.txt', lr=0.002, netName='DAIN_slowmotion', no_date=False, numEpoch=100, occ_lr_coe=1.0, patience=5, rectify_lr=0.001, save_path='./model_weights/58035-Sun-Sep-20-23-38', save_which=1, seed=1, start_frame=1, time_step=0.29975, uid=None, use_cuda=True, use_cudnn=1, weight_decay=0, workers=8)\n",
      "cudnn is used\n",
      "Interpolate 2 frames\n",
      "100%|█████████████████████████████████████| 1624/1624 [1:07:03<00:00,  2.48s/it]\u001b[2K\u001b[2K\u001b[2K\u001b[2K\u001b[2K\u001b[2K\u001b[2K\u001b[2K\u001b[2K\u001b[2K\u001b[2K\u001b[2K\u001b[2K\u001b[2K\u001b[2K\u001b[2K\u001b[2K\u001b[2K\u001b[2K\u001b[2K\u001b[2K\u001b[2K\u001b[2K\u001b[2K\u001b[2K\u001b[2K\u001b[2K\u001b[2K\u001b[2K\u001b[2K\u001b[2K\u001b[2K\u001b[2K\u001b[2K\u001b[2K\u001b[2K\u001b[2K\u001b[2K\u001b[2K\u001b[2K\u001b[2K\u001b[2K\u001b[2K\u001b[2K\u001b[2K\u001b[2K\u001b[2K\u001b[2K\u001b[2K\u001b[2K\u001b[2K\u001b[2K\u001b[2K\u001b[2K\u001b[2K\u001b[2K\u001b[2K\u001b[2K\u001b[2K\u001b[2K\u001b[2K\u001b[2K\u001b[2K\u001b[2K\u001b[2K\u001b[2K\u001b[2K\u001b[2K\u001b[2K\u001b[2K\u001b[2K\u001b[2K\u001b[2K\u001b[2K\u001b[2K\u001b[2K\u001b[2K\u001b[2K\u001b[2K\u001b[2K\u001b[2K\u001b[2K\u001b[2K\u001b[2K\u001b[2K\u001b[2K\u001b[2K\u001b[2K\u001b[2K\u001b[2K\u001b[2K\u001b[2K\u001b[2K\u001b[2K\u001b[2K\u001b[2K\u001b[2K\u001b[2K\u001b[2K\u001b[2K\u001b[2K\u001b[2K\u001b[2K\u001b[2K\u001b[2K\u001b[2K\u001b[2K\u001b[2K\u001b[2K\u001b[2K\u001b[2K\u001b[2K\u001b[2K\u001b[2K\u001b[2K\u001b[2K\u001b[2K\u001b[2K\u001b[2K\u001b[2K\u001b[2K\u001b[2K\u001b[2K\u001b[2K\u001b[2K\u001b[2K\u001b[2K\u001b[2K\u001b[2K\u001b[2K\u001b[2K\u001b[2K\u001b[2K\u001b[2K\u001b[2K\u001b[2K\u001b[2K\u001b[2K\u001b[2K\u001b[2K\u001b[2K\u001b[2K\u001b[2K\u001b[2K\u001b[2K\u001b[2K\u001b[2K\u001b[2K\u001b[2K\u001b[2K\u001b[2K\u001b[2K\u001b[2K\u001b[2K\u001b[2K\u001b[2K\u001b[2K\u001b[2K\u001b[2K\u001b[2K\u001b[2K\u001b[2K\u001b[2K\u001b[2K\u001b[2K\u001b[2K\u001b[2K\u001b[2K\u001b[2K\u001b[2K\u001b[2K\u001b[2K\u001b[2K\u001b[2K\u001b[2K\u001b[2K\u001b[2K\u001b[2K\u001b[2K\u001b[2K\u001b[2K\u001b[2K\u001b[2K\u001b[2K\u001b[2K\u001b[2K\u001b[2K\u001b[2K\u001b[2K\u001b[2K\u001b[2K\u001b[2K\u001b[2K\u001b[2K\u001b[2K\u001b[2K\u001b[2K\u001b[2K\u001b[2K\u001b[2K\u001b[2K\u001b[2K\u001b[2K\u001b[2K\u001b[2K\u001b[2K\u001b[2K\u001b[2K\u001b[2K\u001b[2K\u001b[2K\u001b[2K\u001b[2K\u001b[2K\u001b[2K\u001b[2K\u001b[2K\u001b[2K\u001b[2K\u001b[2K\u001b[2K\u001b[2K\u001b[2K\u001b[2K\u001b[2K\u001b[2K\u001b[2K\u001b[2K\u001b[2K\u001b[2K\u001b[2K\u001b[2K\u001b[2K\u001b[2K\u001b[2K\u001b[2K\u001b[2K\u001b[2K\u001b[2K\u001b[2K\u001b[2K\u001b[2K\u001b[2K\u001b[2K\u001b[2K\u001b[2K\u001b[2K\u001b[2K\u001b[2K\u001b[2K\u001b[2K\u001b[2K\u001b[2K\u001b[2K\u001b[2K\u001b[2K\u001b[2K\u001b[2K\u001b[2K\u001b[2K\u001b[2K\u001b[2K\u001b[2K\u001b[2K\u001b[2K\u001b[2K\u001b[2K\u001b[2K\u001b[2K\u001b[2K\u001b[2K\u001b[2K\u001b[2K\u001b[2K\u001b[2K\u001b[2K\u001b[2K\u001b[2K\u001b[2K\u001b[2K\u001b[2K\u001b[2K\u001b[2K\u001b[2K\u001b[2K\u001b[2K\u001b[2K\u001b[2K\u001b[2K\u001b[2K\u001b[2K\u001b[2K\u001b[2K\u001b[2K\u001b[2K\u001b[2K\u001b[2K\u001b[2K\u001b[2K\u001b[2K\u001b[2K\u001b[2K\u001b[2K\u001b[2K\u001b[2K\u001b[2K\u001b[2K\u001b[2K\u001b[2K\u001b[2K\u001b[2K\u001b[2K\u001b[2K\u001b[2K\u001b[2K\u001b[2K\u001b[2K\u001b[2K\u001b[2K\u001b[2K\u001b[2K\u001b[2K\u001b[2K\u001b[2K\u001b[2K\u001b[2K\u001b[2K\u001b[2K\u001b[2K\u001b[2K\u001b[2K\u001b[2K\u001b[2K\u001b[2K\u001b[2K\u001b[2K\u001b[2K\u001b[2K\u001b[2K\u001b[2K\u001b[2K\u001b[2K\u001b[2K\u001b[2K\u001b[2K\u001b[2K\u001b[2K\u001b[2K\u001b[2K\u001b[2K\u001b[2K\u001b[2K\u001b[2K\u001b[2K\u001b[2K\u001b[2K\u001b[2K\u001b[2K\u001b[2K\u001b[2K\u001b[2K\u001b[2K\u001b[2K\u001b[2K\u001b[2K\u001b[2K\u001b[2K\u001b[2K\u001b[2K\u001b[2K\u001b[2K\u001b[2K\u001b[2K\u001b[2K\u001b[2K\u001b[2K\u001b[2K\u001b[2K\u001b[2K\u001b[2K\u001b[2K\u001b[2K\u001b[2K\u001b[2K\u001b[2K\u001b[2K\u001b[2K\u001b[2K\u001b[2K\u001b[2K\u001b[2K\u001b[2K\u001b[2K\u001b[2K\u001b[2K\u001b[2K\u001b[2K\u001b[2K\u001b[2K\u001b[2K\u001b[2K\u001b[2K\u001b[2K\u001b[2K\u001b[2K\u001b[2K\u001b[2K\u001b[2K\u001b[2K\u001b[2K\u001b[2K\u001b[2K\u001b[2K\u001b[2K\u001b[2K\u001b[2K\u001b[2K\u001b[2K\u001b[2K\u001b[2K\u001b[2K\u001b[2K\u001b[2K\u001b[2K\u001b[2K\u001b[2K\u001b[2K\u001b[2K\u001b[2K\u001b[2K\u001b[2K\u001b[2K\u001b[2K\u001b[2K\u001b[2K\u001b[2K\u001b[2K\u001b[2K\u001b[2K\u001b[2K\u001b[2K\u001b[2K\u001b[2K\u001b[2K\u001b[2K\u001b[2K\u001b[2K\u001b[2K\u001b[2K\u001b[2K\u001b[2K\u001b[2K\u001b[2K\u001b[2K\u001b[2K\u001b[2K\u001b[2K\u001b[2K\u001b[2K\u001b[2K\u001b[2K\u001b[2K\u001b[2K\u001b[2K\u001b[2K\u001b[2K\u001b[2K\u001b[2K\u001b[2K\u001b[2K\u001b[2K\u001b[2K\u001b[2K\u001b[2K\u001b[2K\u001b[2K\u001b[2K\u001b[2K\u001b[2K\u001b[2K\u001b[2K\u001b[2K\u001b[2K\u001b[2K\u001b[2K\u001b[2K\u001b[2K\u001b[2K\u001b[2K\u001b[2K\u001b[2K\u001b[2K\u001b[2K\u001b[2K\u001b[2K\u001b[2K\u001b[2K\u001b[2K\u001b[2K\u001b[2K\u001b[2K\u001b[2K\u001b[2K\u001b[2K\u001b[2K\u001b[2K\u001b[2K\u001b[2K\u001b[2K\u001b[2K\u001b[2K\u001b[2K\u001b[2K\u001b[2K\u001b[2K\u001b[2K\u001b[2K\u001b[2K\u001b[2K\u001b[2K\u001b[2K\u001b[2K\u001b[2K\u001b[2K\u001b[2K\u001b[2K\u001b[2K\u001b[2K\u001b[2K\u001b[2K\u001b[2K\u001b[2K\u001b[2K\u001b[2K\u001b[2K\u001b[2K\u001b[2K\u001b[2K\u001b[2K\u001b[2K\u001b[2K\u001b[2K\u001b[2K\u001b[2K\u001b[2K\u001b[2K\u001b[2K\u001b[2K\u001b[2K\u001b[2K\u001b[2K\u001b[2K\u001b[2K\u001b[2K\u001b[2K\u001b[2K\u001b[2K\u001b[2K\u001b[2K\u001b[2K\u001b[2K\u001b[2K\u001b[2K\u001b[2K\u001b[2K\u001b[2K\u001b[2K\u001b[2K\u001b[2K\u001b[2K\u001b[2K\u001b[2K\u001b[2K\u001b[2K\u001b[2K\u001b[2K\u001b[2K\u001b[2K\u001b[2K\u001b[2K\u001b[2K\u001b[2K\u001b[2K\u001b[2K\u001b[2K\u001b[2K\u001b[2K\u001b[2K\u001b[2K\u001b[2K\u001b[2K\u001b[2K\u001b[2K\u001b[2K\u001b[2K\u001b[2K\u001b[2K\u001b[2K\u001b[2K\u001b[2K\u001b[2K\u001b[2K\u001b[2K\u001b[2K\u001b[2K\u001b[2K\u001b[2K\u001b[2K\u001b[2K\u001b[2K\u001b[2K\u001b[2K\u001b[2K\u001b[2K\u001b[2K\u001b[2K\u001b[2K\u001b[2K\u001b[2K\u001b[2K\u001b[2K\u001b[2K\u001b[2K\u001b[2K\u001b[2K\u001b[2K\u001b[2K\u001b[2K\u001b[2K\u001b[2K\u001b[2K\u001b[2K\u001b[2K\u001b[2K\u001b[2K\u001b[2K\u001b[2K\u001b[2K\u001b[2K\u001b[2K\u001b[2K\u001b[2K\u001b[2K\u001b[2K\u001b[2K\u001b[2K\u001b[2K\u001b[2K\u001b[2K\u001b[2K\u001b[2K\u001b[2K\u001b[2K\u001b[2K\u001b[2K\u001b[2K\u001b[2K\u001b[2K\u001b[2K\u001b[2K\u001b[2K\u001b[2K\u001b[2K\u001b[2K\u001b[2K\u001b[2K\u001b[2K\u001b[2K\u001b[2K\u001b[2K\u001b[2K\u001b[2K\u001b[2K\u001b[2K\u001b[2K\u001b[2K\u001b[2K\u001b[2K\u001b[2K\u001b[2K\u001b[2K\u001b[2K\u001b[2K\u001b[2K\u001b[2K\u001b[2K\u001b[2K\u001b[2K\u001b[2K\u001b[2K\u001b[2K\u001b[2K\u001b[2K\u001b[2K\u001b[2K\u001b[2K\u001b[2K\u001b[2K\u001b[2K\u001b[2K\u001b[2K\u001b[2K\u001b[2K\u001b[2K\u001b[2K\u001b[2K\u001b[2K\u001b[2K\u001b[2K\u001b[2K\u001b[2K\u001b[2K\u001b[2K\u001b[2K\u001b[2K\u001b[2K\u001b[2K\u001b[2K\u001b[2K\u001b[2K\u001b[2K\u001b[2K\u001b[2K\u001b[2K\u001b[2K\u001b[2K\u001b[2K\u001b[2K\u001b[2K\u001b[2K\u001b[2K\u001b[2K\u001b[2K\u001b[2K\u001b[2K\u001b[2K\u001b[2K\u001b[2K\u001b[2K\u001b[2K\u001b[2K\u001b[2K\u001b[2K\u001b[2K\u001b[2K\u001b[2K\u001b[2K\u001b[2K\u001b[2K\u001b[2K\u001b[2K\u001b[2K\u001b[2K\u001b[2K\u001b[2K\u001b[2K\u001b[2K\u001b[2K\u001b[2K\u001b[2K\u001b[2K\u001b[2K\u001b[2K\u001b[2K\u001b[2K\u001b[2K\u001b[2K\u001b[2K\u001b[2K\u001b[2K\u001b[2K\u001b[2K\u001b[2K\u001b[2K\u001b[2K\u001b[2K\u001b[2K\u001b[2K\u001b[2K\u001b[2K\u001b[2K\u001b[2K\u001b[2K\u001b[2K\u001b[2K\u001b[2K\u001b[2K\u001b[2K\u001b[2K\u001b[2K\u001b[2K\u001b[2K\u001b[2K\u001b[2K\u001b[2K\u001b[2K\u001b[2K\u001b[2K\u001b[2K\u001b[2K\u001b[2K\u001b[2K\u001b[2K\u001b[2K\u001b[2K\u001b[2K\u001b[2K\u001b[2K\u001b[2K\u001b[2K\u001b[2K\u001b[2K\u001b[2K\u001b[2K\u001b[2K\u001b[2K\u001b[2K\u001b[2K\u001b[2K\u001b[2K\u001b[2K\u001b[2K\u001b[2K\u001b[2K\u001b[2K\u001b[2K\u001b[2K\u001b[2K\u001b[2K\u001b[2K\u001b[2K\u001b[2K\u001b[2K\u001b[2K\u001b[2K\u001b[2K\u001b[2K\u001b[2K\u001b[2K\u001b[2K\u001b[2K\u001b[2K\u001b[2K\u001b[2K\u001b[2K\u001b[2K\u001b[2K\u001b[2K\u001b[2K\u001b[2K\u001b[2K\u001b[2K\u001b[2K\u001b[2K\u001b[2K\u001b[2K\u001b[2K\u001b[2K\u001b[2K\u001b[2K\u001b[2K\u001b[2K\u001b[2K\u001b[2K\u001b[2K\u001b[2K\u001b[2K\u001b[2K\u001b[2K\u001b[2K\u001b[2K\u001b[2K\u001b[2K\u001b[2K\u001b[2K\u001b[2K\u001b[2K\u001b[2K\u001b[2K\u001b[2K\u001b[2K\u001b[2K\u001b[2K\u001b[2K\u001b[2K\u001b[2K\u001b[2K\u001b[2K\u001b[2K\u001b[2K\u001b[2K\u001b[2K\u001b[2K\u001b[2K\u001b[2K\u001b[2K\u001b[2K\u001b[2K\u001b[2K\u001b[2K\u001b[2K\u001b[2K\u001b[2K\u001b[2K\u001b[2K\u001b[2K\u001b[2K\u001b[2K\u001b[2K\u001b[2K\u001b[2K\u001b[2K\u001b[2K\u001b[2K\u001b[2K\u001b[2K\u001b[2K\u001b[2K\u001b[2K\u001b[2K\u001b[2K\u001b[2K\u001b[2K\u001b[2K\u001b[2K\u001b[2K\u001b[2K\u001b[2K\u001b[2K\u001b[2K\u001b[2K\u001b[2K\u001b[2K\u001b[2K\u001b[2K\u001b[2K\u001b[2K\u001b[2K\u001b[2K\u001b[2K\u001b[2K\u001b[2K\u001b[2K\u001b[2K\u001b[2K\u001b[2K\u001b[2K\u001b[2K\u001b[2K\u001b[2K\u001b[2K\u001b[2K\u001b[2K\u001b[2K\u001b[2K\u001b[2K\u001b[2K\u001b[2K\u001b[2K\u001b[2K\u001b[2K\u001b[2K\u001b[2K\u001b[2K\u001b[2K\u001b[2K\u001b[2K\u001b[2K\u001b[2K\u001b[2K\u001b[2K\u001b[2K\u001b[2K\u001b[2K\u001b[2K\u001b[2K\u001b[2K\u001b[2K\u001b[2K\u001b[2K\u001b[2K\u001b[2K\u001b[2K\u001b[2K\u001b[2K\u001b[2K\u001b[2K\u001b[2K\u001b[2K\u001b[2K\u001b[2K\u001b[2K\u001b[2K\u001b[2K\u001b[2K\u001b[2K\u001b[2K\u001b[2K\u001b[2K\u001b[2K\u001b[2K\u001b[2K\u001b[2K\u001b[2K\u001b[2K\u001b[2K\u001b[2K\u001b[2K\u001b[2K\u001b[2K\u001b[2K\u001b[2K\u001b[2K\u001b[2K\u001b[2K\u001b[2K\u001b[2K\u001b[2K\u001b[2K\u001b[2K\u001b[2K\u001b[2K\u001b[2K\u001b[2K\u001b[2K\u001b[2K\u001b[2K\u001b[2K\u001b[2K\u001b[2K\u001b[2K\u001b[2K\u001b[2K\u001b[2K\u001b[2K\u001b[2K\u001b[2K\u001b[2K\u001b[2K\u001b[2K\u001b[2K\u001b[2K\u001b[2K\u001b[2K\u001b[2K\u001b[2K\u001b[2K\u001b[2K\u001b[2K\u001b[2K\u001b[2K\u001b[2K\u001b[2K\u001b[2K\u001b[2K\u001b[2K\u001b[2K\u001b[2K\u001b[2K\u001b[2K\u001b[2K\u001b[2K\u001b[2K\u001b[2K\u001b[2K\u001b[2K\u001b[2K\u001b[2K\u001b[2K\u001b[2K\u001b[2K\u001b[2K\u001b[2K\u001b[2K\u001b[2K\u001b[2K\u001b[2K\u001b[2K\u001b[2K\u001b[2K\u001b[2K\u001b[2K\u001b[2K\u001b[2K\u001b[2K\u001b[2K\u001b[2K\u001b[2K\u001b[2K\u001b[2K\u001b[2K\u001b[2K\u001b[2K\u001b[2K\u001b[2K\u001b[2K\u001b[2K\u001b[2K\u001b[2K\u001b[2K\u001b[2K\u001b[2K\u001b[2K\u001b[2K\u001b[2K\u001b[2K\u001b[2K\u001b[2K\u001b[2K\u001b[2K\u001b[2K\u001b[2K\u001b[2K\u001b[2K\u001b[2K\u001b[2K\u001b[2K\u001b[2K\u001b[2K\u001b[2K\u001b[2K\u001b[2K\u001b[2K\u001b[2K\u001b[2K\u001b[2K\u001b[2K\u001b[2K\u001b[2K\u001b[2K\u001b[2K\u001b[2K\u001b[2K\u001b[2K\u001b[2K\u001b[2K\u001b[2K\u001b[2K\u001b[2K\u001b[2K\u001b[2K\u001b[2K\u001b[2K\u001b[2K\u001b[2K\u001b[2K\u001b[2K\u001b[2K\u001b[2K\u001b[2K\u001b[2K\u001b[2K\u001b[2K\u001b[2K\u001b[2K\u001b[2K\u001b[2K\u001b[2K\u001b[2K\u001b[2K\u001b[2K\u001b[2K\u001b[2K\u001b[2K\u001b[2K\u001b[2K\u001b[2K\u001b[2K\u001b[2K\u001b[2K\u001b[2K\u001b[2K\u001b[2K\u001b[2K\u001b[2K\u001b[2K\u001b[2K\u001b[2K\u001b[2K\u001b[2K\u001b[2K\u001b[2K\u001b[2K\u001b[2K\u001b[2K\u001b[2K\u001b[2K\u001b[2K\u001b[2K\u001b[2K\u001b[2K\u001b[2K\u001b[2K\u001b[2K\u001b[2K\u001b[2K\u001b[2K\u001b[2K\u001b[2K\u001b[2K\u001b[2K\u001b[2K\u001b[2K\u001b[2K\u001b[2K\u001b[2K\u001b[2K\u001b[2K\u001b[2K\u001b[2K\u001b[2K\u001b[2K\u001b[2K\u001b[2K\u001b[2K\u001b[2K\u001b[2K\u001b[2K\u001b[2K\u001b[2K\u001b[2K\u001b[2K\u001b[2K\u001b[2K\u001b[2K\u001b[2K\u001b[2K\u001b[2K\u001b[2K\u001b[2K\u001b[2K\u001b[2K\u001b[2K\u001b[2K\u001b[2K\u001b[2K\u001b[2K\u001b[2K\u001b[2K\u001b[2K\u001b[2K\u001b[2K\u001b[2K\u001b[2K\u001b[2K\u001b[2K\u001b[2K\u001b[2K\u001b[2K\u001b[2K\u001b[2K\u001b[2K\u001b[2K\u001b[2K\u001b[2K\u001b[2K\u001b[2K\u001b[2K\u001b[2K\u001b[2K\u001b[2K\u001b[2K\u001b[2K\u001b[2K\u001b[2K\u001b[2K\u001b[2K\u001b[2K\u001b[2K\u001b[2K\u001b[2K\u001b[2K\u001b[2K\u001b[2K\u001b[2K\u001b[2K\u001b[2K\u001b[2K\u001b[2K\u001b[2K\u001b[2K\u001b[2K\u001b[2K\u001b[2K\u001b[2K\u001b[2K\u001b[2K\u001b[2K\u001b[2K\u001b[2K\u001b[2K\u001b[2K\u001b[2K\u001b[2K\u001b[2K\u001b[2K\u001b[2K\u001b[2K\u001b[2K\u001b[2K\u001b[2K\u001b[2K\u001b[2K\u001b[2K\u001b[2K\u001b[2K\u001b[2K\u001b[2K\u001b[2K\u001b[2K\u001b[2K\u001b[2K\u001b[2K\u001b[2K\u001b[2K\u001b[2K\u001b[2K\u001b[2K\u001b[2K\u001b[2K\u001b[2K\u001b[2K\u001b[2K\u001b[2K\u001b[2K\u001b[2K\u001b[2K\u001b[2K\u001b[2K\u001b[2K\u001b[2K\u001b[2K\u001b[2K\u001b[2K\u001b[2K\u001b[2K\u001b[2K\u001b[2K\u001b[2K\u001b[2K\u001b[2K\u001b[2K\u001b[2K\u001b[2K\u001b[2K\u001b[2K\u001b[2K\u001b[2K\u001b[2K\u001b[2K\u001b[2K\u001b[2K\u001b[2K\u001b[2K\u001b[2K\u001b[2K\u001b[2K\u001b[2K\u001b[2K\u001b[2K\u001b[2K\u001b[2K\u001b[2K\u001b[2K\u001b[2K\u001b[2K\u001b[2K\u001b[2K\u001b[2K\u001b[2K\u001b[2K\u001b[2K\u001b[2K\u001b[2K\u001b[2K\u001b[2K\u001b[2K\u001b[2K\u001b[2K\u001b[2K\u001b[2K\u001b[2K\u001b[2K\u001b[2K\u001b[2K\u001b[2K\u001b[2K\u001b[2K\u001b[2K\u001b[2K\u001b[2K\u001b[2K\u001b[2K\u001b[2K\u001b[2K\u001b[2K\u001b[2K\u001b[2K\u001b[2K\u001b[2K\u001b[2K\u001b[2K\u001b[2K\u001b[2K\u001b[2K\u001b[2K\u001b[2K\u001b[2K\u001b[2K\u001b[2K\u001b[2K\u001b[2K\u001b[2K\u001b[2K\u001b[2K\u001b[2K\u001b[2K\u001b[2K\u001b[2K\u001b[2K\u001b[2K\u001b[2K\u001b[2K\u001b[2K\u001b[2K\u001b[2K\u001b[2K\u001b[2K\u001b[2K\u001b[2K\u001b[2K\u001b[2K\u001b[2K\u001b[2K\u001b[2K\u001b[2K\u001b[2K\u001b[2K\u001b[2K\u001b[2K\u001b[2K\u001b[2K\u001b[2K\u001b[2K\u001b[2K\u001b[2K\u001b[2K\u001b[2K\u001b[2K\u001b[2K\u001b[2K\u001b[2K\u001b[2K\u001b[2K\u001b[2K\u001b[2K\u001b[2K\u001b[2K\u001b[2K\u001b[2K\u001b[2K\u001b[2K\u001b[2K\u001b[2K\u001b[2K\u001b[2K\u001b[2K\u001b[2K\u001b[2K\u001b[2K\u001b[2K\u001b[2K\u001b[2K\u001b[2K\u001b[2K\u001b[2K\u001b[2K\u001b[2K\u001b[2K\u001b[2K\u001b[2K\u001b[2K\u001b[2K\u001b[2K\u001b[2K\u001b[2K\u001b[2K\u001b[2K\u001b[2K\u001b[2K\u001b[2K\u001b[2K\u001b[2K\u001b[2K\u001b[2K\u001b[2K\u001b[2K\u001b[2K\u001b[2K\u001b[2K\u001b[2K\u001b[2K\u001b[2K\u001b[2K\u001b[2K\u001b[2K\u001b[2K\u001b[2K\u001b[2K\u001b[2K\u001b[2K\u001b[2K\u001b[2K\u001b[2K\u001b[2K\u001b[2K\u001b[2K\u001b[2K\u001b[2K\u001b[2K\u001b[2K\u001b[2K\u001b[2K\u001b[2K\u001b[2K\u001b[2K\u001b[2K\u001b[2K\u001b[2K\u001b[2K\u001b[2K\u001b[2K\u001b[2K\u001b[2K\u001b[2K\u001b[2K\u001b[2K\u001b[2K\u001b[2K\u001b[2K\u001b[2K\u001b[2K\u001b[2K\u001b[2K\u001b[2K\u001b[2K\u001b[2K\u001b[2K\u001b[2K\u001b[2K\u001b[2K\u001b[2K\u001b[2K\u001b[2K\u001b[2K\u001b[2K\u001b[2K\u001b[2K\u001b[2K\u001b[2K\u001b[2K\u001b[2K\u001b[2K\u001b[2K\u001b[2K\u001b[2K\u001b[2K\u001b[2K\u001b[2K\u001b[2K\u001b[2K\u001b[2K\u001b[2K\u001b[2K\u001b[2K\u001b[2K\u001b[2K\u001b[2K\u001b[2K\u001b[2K\u001b[2K\u001b[2K\u001b[2K\u001b[2K\u001b[2K\u001b[2K\u001b[2K\u001b[2K\u001b[2K\u001b[2K\u001b[2K\u001b[2K\u001b[2K\u001b[2K\u001b[2K\u001b[2K\u001b[2K\u001b[2K\u001b[2K\u001b[2K\u001b[2K\u001b[2K\u001b[2K\u001b[2K\u001b[2K\u001b[2K\u001b[2K\u001b[2K\u001b[2K\u001b[2K\u001b[2K\u001b[2K\u001b[2K\u001b[2K\u001b[2K\u001b[2K\u001b[2K\u001b[2K\u001b[2K\u001b[2K\u001b[2K\u001b[2K\u001b[2K\u001b[2K\n",
      "Finished processing images.\n"
     ]
    }
   ],
   "source": [
    "!python -W ignore colab_interpolate.py --netName DAIN_slowmotion --time_step {fps/TARGET_FPS} --start_frame 1 --end_frame {pngs_generated_count} --frame_input_dir '{INPUTFRAMES_DIRPATH}' --frame_output_dir '{OUTPUTFRAMES_DIRPATH}'"
   ]
  },
  {
   "cell_type": "code",
   "execution_count": 14,
   "metadata": {
    "colab": {},
    "colab_type": "code",
    "id": "xPYewi8jsq_B"
   },
   "outputs": [
    {
     "name": "stderr",
     "output_type": "stream",
     "text": [
      "100%|██████████| 4873/4873 [01:38<00:00, 49.54it/s] \n"
     ]
    }
   ],
   "source": [
    "# Finding DAIN Frames, upscaling and cropping to match original\n",
    "import numpy as np\n",
    "if(RESIZE_HOTFIX==True):\n",
    "  images = []\n",
    "  for filename in tqdm(os.listdir(f'{OUTPUTFRAMES_DIRPATH}')):\n",
    "    img = cv2.imread(os.path.join(f'{OUTPUTFRAMES_DIRPATH}',filename))\n",
    "    part_filename = os.path.splitext(filename)\n",
    "    if(part_filename[0].endswith('0')==False):\n",
    "      dimension = (img.shape[1]+2, img.shape[0]+2)\n",
    "      resized = cv2.resize(img, dimension, interpolation=cv2.INTER_LANCZOS4)\n",
    "      crop = resized[1:(dimension[1]-1), 1:(dimension[0]-1)]\n",
    "      ns = str(f'{OUTPUTFRAMES_DIRPATH}/')+part_filename[0]+\".png\"\n",
    "      cv2.imwrite(ns, crop)"
   ]
  },
  {
   "cell_type": "code",
   "execution_count": 18,
   "metadata": {},
   "outputs": [
    {
     "name": "stdout",
     "output_type": "stream",
     "text": [
      "/notebooks/DAIN/frames/output_frames\n",
      "ffmpeg version 3.4.8-0ubuntu0.2 Copyright (c) 2000-2020 the FFmpeg developers\n",
      "  built with gcc 7 (Ubuntu 7.5.0-3ubuntu1~18.04)\n",
      "  configuration: --prefix=/usr --extra-version=0ubuntu0.2 --toolchain=hardened --libdir=/usr/lib/x86_64-linux-gnu --incdir=/usr/include/x86_64-linux-gnu --enable-gpl --disable-stripping --enable-avresample --enable-avisynth --enable-gnutls --enable-ladspa --enable-libass --enable-libbluray --enable-libbs2b --enable-libcaca --enable-libcdio --enable-libflite --enable-libfontconfig --enable-libfreetype --enable-libfribidi --enable-libgme --enable-libgsm --enable-libmp3lame --enable-libmysofa --enable-libopenjpeg --enable-libopenmpt --enable-libopus --enable-libpulse --enable-librubberband --enable-librsvg --enable-libshine --enable-libsnappy --enable-libsoxr --enable-libspeex --enable-libssh --enable-libtheora --enable-libtwolame --enable-libvorbis --enable-libvpx --enable-libwavpack --enable-libwebp --enable-libx265 --enable-libxml2 --enable-libxvid --enable-libzmq --enable-libzvbi --enable-omx --enable-openal --enable-opengl --enable-sdl2 --enable-libdc1394 --enable-libdrm --enable-libiec61883 --enable-chromaprint --enable-frei0r --enable-libopencv --enable-libx264 --enable-shared\n",
      "  libavutil      55. 78.100 / 55. 78.100\n",
      "  libavcodec     57.107.100 / 57.107.100\n",
      "  libavformat    57. 83.100 / 57. 83.100\n",
      "  libavdevice    57. 10.100 / 57. 10.100\n",
      "  libavfilter     6.107.100 /  6.107.100\n",
      "  libavresample   3.  7.  0 /  3.  7.  0\n",
      "  libswscale      4.  8.100 /  4.  8.100\n",
      "  libswresample   2.  9.100 /  2.  9.100\n",
      "  libpostproc    54.  7.100 / 54.  7.100\n",
      "Input #0, mov,mp4,m4a,3gp,3g2,mj2, from '../../../video/original.mp4':\n",
      "  Metadata:\n",
      "    major_brand     : isom\n",
      "    minor_version   : 512\n",
      "    compatible_brands: isomiso2avc1mp41\n",
      "    title           : 1896 Georges Méliès Le Cauchemar (A Nightmare) Star Film 82 - http://archive.org/details/LeCauchemar\n",
      "    encoder         : Lavf54.3.100\n",
      "    comment         : license:http://creativecommons.org/publicdomain/mark/1.0/\n",
      "  Duration: 00:01:08.36, start: 0.000000, bitrate: 817 kb/s\n",
      "    Stream #0:0(und): Video: h264 (Constrained Baseline) (avc1 / 0x31637661), yuv420p, 640x480 [SAR 31:30 DAR 62:45], 696 kb/s, 23.98 fps, 23.98 tbr, 1199 tbn, 47.96 tbc (default)\n",
      "    Metadata:\n",
      "      handler_name    : VideoHandler\n",
      "    Stream #0:1(und): Audio: aac (LC) (mp4a / 0x6134706D), 44100 Hz, stereo, fltp, 119 kb/s (default)\n",
      "    Metadata:\n",
      "      handler_name    : SoundHandler\n",
      "Output #0, adts, to '../../../video/temp_outputaudio.aac':\n",
      "  Metadata:\n",
      "    major_brand     : isom\n",
      "    minor_version   : 512\n",
      "    compatible_brands: isomiso2avc1mp41\n",
      "    title           : 1896 Georges Méliès Le Cauchemar (A Nightmare) Star Film 82 - http://archive.org/details/LeCauchemar\n",
      "    comment         : license:http://creativecommons.org/publicdomain/mark/1.0/\n",
      "    encoder         : Lavf57.83.100\n",
      "    Stream #0:0(und): Audio: aac (LC) (mp4a / 0x6134706D), 44100 Hz, stereo, fltp, 119 kb/s (default)\n",
      "    Metadata:\n",
      "      handler_name    : SoundHandler\n",
      "Stream mapping:\n",
      "  Stream #0:1 -> #0:0 (copy)\n",
      "Press [q] to stop, [?] for help\n",
      "size=    1017kB time=00:01:08.33 bitrate= 121.9kbits/s speed=4.55e+03x    \n",
      "video:0kB audio:997kB subtitle:0kB other streams:0kB global headers:0kB muxing overhead: 2.018439%\n",
      "/notebooks/DAIN\n"
     ]
    }
   ],
   "source": [
    "%cd {OUTPUTFRAMES_DIRPATH}\n",
    "! ffmpeg -i '../../../{INPUT_FILEPATH}' -acodec copy '../../../video/temp_outputaudio.aac'\n",
    "#print(\"\\n\")\n",
    "#! ffmpeg -y -r {TARGET_FPS} -f image2 -pattern_type glob -i '*.png' -i '../../../video/temp_outputaudio.aac' -shortest -c:v copy -c:a aac -b:a 256k  '../../../{OUTPUT_FILEPATH}'\n",
    "#! rm temp_outputaudio.aac\n",
    "%cd ../.."
   ]
  },
  {
   "cell_type": "code",
   "execution_count": 25,
   "metadata": {},
   "outputs": [],
   "source": [
    "def img2video(read_path,save_path):\n",
    "    #print(read_path)\n",
    "    #print(save_path)\n",
    "    files = []\n",
    "    for r, _, f in os.walk(read_path):\n",
    "        for file in f:\n",
    "            if '.png' in file:\n",
    "                files.append([os.path.join(r, file),file.replace(\".png\",\"\").replace(\"-checkpoint\",\"\")])\n",
    "    #print(\"\")\n",
    "    files.sort(key=lambda x: int(x[1]))\n",
    "    img = cv2.imread(files[0][0])\n",
    "    height, width, _ = img.shape\n",
    "    size = (width,height)\n",
    "    #print(\"VidSize: \",str(size))\n",
    "    #print(\"\")\n",
    "    #-----------------------------------------------\n",
    "    out = cv2.VideoWriter(save_path,cv2.VideoWriter_fourcc(*'mp4v'), 60, size)\n",
    "\n",
    "    for file in tqdm(range(len(files))):\n",
    "        path = files[file][0]\n",
    "        img = cv2.imread(path)\n",
    "        out.write(img)\n",
    "    out.release()"
   ]
  },
  {
   "cell_type": "code",
   "execution_count": 27,
   "metadata": {},
   "outputs": [
    {
     "name": "stderr",
     "output_type": "stream",
     "text": [
      "100%|██████████| 4873/4873 [00:47<00:00, 102.85it/s]\n"
     ]
    }
   ],
   "source": [
    "img2video(OUTPUTFRAMES_DIRPATH,'../'+OUTPUT_FILEPATH)"
   ]
  },
  {
   "cell_type": "code",
   "execution_count": 28,
   "metadata": {},
   "outputs": [
    {
     "name": "stdout",
     "output_type": "stream",
     "text": [
      "video/original.mp4\n"
     ]
    },
    {
     "data": {
      "text/html": [
       "<video src=\"../video/original.mp4\" controls  >\n",
       "      Your browser does not support the <code>video</code> element.\n",
       "    </video>"
      ],
      "text/plain": [
       "<IPython.core.display.Video object>"
      ]
     },
     "execution_count": 28,
     "metadata": {},
     "output_type": "execute_result"
    }
   ],
   "source": [
    "from IPython.display import Video as V1\n",
    "print(INPUT_FILEPATH)\n",
    "V1('../'+str(INPUT_FILEPATH))"
   ]
  },
  {
   "cell_type": "code",
   "execution_count": 29,
   "metadata": {},
   "outputs": [
    {
     "name": "stdout",
     "output_type": "stream",
     "text": [
      "video/output.mp4\n"
     ]
    },
    {
     "data": {
      "text/html": [
       "<video src=\"../video/output.mp4\" controls  >\n",
       "      Your browser does not support the <code>video</code> element.\n",
       "    </video>"
      ],
      "text/plain": [
       "<IPython.core.display.Video object>"
      ]
     },
     "execution_count": 29,
     "metadata": {},
     "output_type": "execute_result"
    }
   ],
   "source": [
    "from IPython.display import Video as V2\n",
    "print(OUTPUT_FILEPATH)\n",
    "V2('../'+OUTPUT_FILEPATH)"
   ]
  },
  {
   "cell_type": "code",
   "execution_count": null,
   "metadata": {},
   "outputs": [],
   "source": []
  }
 ],
 "metadata": {
  "accelerator": "GPU",
  "colab": {
   "collapsed_sections": [],
   "name": "Colab_DAIN.ipynb",
   "private_outputs": true,
   "provenance": [],
   "toc_visible": true
  },
  "kernelspec": {
   "display_name": "Python 3",
   "language": "python",
   "name": "python3"
  },
  "language_info": {
   "codemirror_mode": {
    "name": "ipython",
    "version": 3
   },
   "file_extension": ".py",
   "mimetype": "text/x-python",
   "name": "python",
   "nbconvert_exporter": "python",
   "pygments_lexer": "ipython3",
   "version": "3.6.8"
  }
 },
 "nbformat": 4,
 "nbformat_minor": 4
}
